<svg viewBox="0 0 49 49" xmlns="http://www.w3.org/2000/svg" xmlns:xlink="http://www.w3.org/1999/xlink" xml:space="preserve" overflow="hidden"><g id="grid" display="none"></g><g id="pictogram"><g><g><g><path d="M15.2 22 15.2 29.7 11.3 29.7 11.3 22 15.2 22Z" stroke="currentColor" stroke-width="1.5" stroke-miterlimit="10" fill="none"></path><path d="M22 22 22 29.7 18.1 29.7 18.1 22 22 22Z" stroke="currentColor" stroke-width="1.5" stroke-miterlimit="10" fill="none"></path><line x1="24.9" y1="21.3" x2="24.9" y2="30.4" stroke="currentColor" stroke-width="1.5" stroke-miterlimit="10" fill="none"></line><path d="M31.8 22 31.8 29.7 27.9 29.7 27.9 22 31.8 22Z" stroke="currentColor" stroke-width="1.5" stroke-miterlimit="10" fill="none"></path><path d="M38.6 22 38.6 29.7 34.7 29.7 34.7 22 38.6 22Z" stroke="currentColor" stroke-width="1.5" stroke-miterlimit="10" fill="none"></path><line x1="9.3" y1="16.1" x2="9.3" y2="10.7" stroke="currentColor" stroke-width="1.5" stroke-miterlimit="10" fill="none"></line><line x1="13.2" y1="16.1" x2="13.2" y2="10.7" stroke="currentColor" stroke-width="1.5" stroke-miterlimit="10" fill="none"></line><line x1="17.1" y1="16.1" x2="17.1" y2="10.7" stroke="currentColor" stroke-width="1.5" stroke-miterlimit="10" fill="none"></line><line x1="21" y1="16.1" x2="21" y2="10.7" stroke="currentColor" stroke-width="1.5" stroke-miterlimit="10" fill="none"></line><line x1="33.7" y1="16.1" x2="33.7" y2="10.7" stroke="currentColor" stroke-width="1.5" stroke-miterlimit="10" fill="none"></line><line x1="37.6" y1="16.1" x2="37.6" y2="10.7" stroke="currentColor" stroke-width="1.5" stroke-miterlimit="10" fill="none"></line><line x1="41.6" y1="16.1" x2="41.6" y2="10.7" stroke="currentColor" stroke-width="1.5" stroke-miterlimit="10" fill="none"></line><path d="M5.6 16.1 44.2 16.1 44.2 39 5.6 39 5.6 16.1Z" stroke="currentColor" stroke-width="1.5" stroke-miterlimit="10" fill="none"></path><line x1="5.6" y1="35.6" x2="44.2" y2="35.6" stroke="currentColor" stroke-width="1.5" stroke-miterlimit="10" fill="none"></line></g></g></g></g></svg>